HIERARCHY
ROOT pelvis
{
  OFFSET 0 100 0
  CHANNELS 6 Xposition Yposition Zposition Zrotation Xrotation Yrotation
  JOINT pelvis_right_femur
  {
    OFFSET -10.78128 -3.44521 -0.5502486
    CHANNELS 3 Zrotation Xrotation Yrotation
    JOINT right_femur_tibia
    {
      OFFSET -0.8047443 -44.0398 -0.1307829
      CHANNELS 3 Zrotation Xrotation Yrotation
      JOINT right_tibia_foot
      {
        OFFSET 3.006224 -47.83518 -5
        CHANNELS 3 Zrotation Xrotation Yrotation
        End Site
        {
          OFFSET 0 -5 15
        }
      }
    }
  }
  JOINT pelvis_left_femur
  {
    OFFSET 10.78128 -3.44521 -0.5502486
    CHANNELS 3 Zrotation Xrotation Yrotation
    JOINT left_femur_tibia
    {
      OFFSET 0.8047443 -44.0398 -0.1307829
      CHANNELS 3 Zrotation Xrotation Yrotation
      JOINT left_tibia_foot
      {
        OFFSET -4.370144 -48.10324 -4.275266
        CHANNELS 3 Zrotation Xrotation Yrotation
        End Site
        {
          OFFSET 0 -5 15
        }
      }
    }
  }
  JOINT pelvis_spine1
  {
    OFFSET 0 6.468898 -3.129235
    CHANNELS 3 Zrotation Xrotation Yrotation
    JOINT spine1
    {
      OFFSET 0 23.15396 4.99043
      CHANNELS 3 Zrotation Xrotation Yrotation
      JOINT spine2
      {
        OFFSET 0 20.79997 -5.064912
        CHANNELS 3 Zrotation Xrotation Yrotation
        JOINT neck
        {
          OFFSET 0 14.38658 9.616178
          CHANNELS 3 Zrotation Xrotation Yrotation
          End Site
          {
            OFFSET 0 20 0
          }
        }
      }
      JOINT right_manubrium
      {
        OFFSET -5.722621 16.35077 3.967754
        CHANNELS 3 Zrotation Xrotation Yrotation
        JOINT right_clavicle
        {
          OFFSET -13.16364 1.694482 -4.693211
          CHANNELS 3 Zrotation Xrotation Yrotation
          JOINT right_humerus
          {
            OFFSET -28.5034 -0.3100689 -2.792744
            CHANNELS 3 Zrotation Xrotation Yrotation
            JOINT right_radius
            {
              OFFSET -25.15693 0.02248979 -1.271978
              CHANNELS 3 Zrotation Xrotation Yrotation
              End Site
              {
                OFFSET -15 0 0
              }
            }
          }
        }
      }
      JOINT left_manubrium
      {
        OFFSET 5.722621 16.35077 3.967754
        CHANNELS 3 Zrotation Xrotation Yrotation
        JOINT left_clavicle
        {
          OFFSET 13.16364 1.694482 -4.693211
          CHANNELS 3 Zrotation Xrotation Yrotation
          JOINT left_humerus
          {
            OFFSET 29.39168 -1.063119 -2.237045
            CHANNELS 3 Zrotation Xrotation Yrotation
            JOINT left_radius
            {
              OFFSET 24.59957 -0.9528479 0.9047498
              CHANNELS 3 Zrotation Xrotation Yrotation
              End Site
              {
                OFFSET 15 -0 -0
              }
            }
          }
        }
      }
    }
  }
}
MOTION
Frames: 7
Frame Time: 0.0416666666667
0 103.5113 0 0.4798896 -0.5485234 -0.1689082 3.930361 -17.24345 9.575414 -0 40.3271 -0 -7.061633 -15.00249 -2.947242 -6.469839 8.809404 -21.90528 -0 5.889446 -0 12.64569 -14.05905 28.07767 -3.527469 -3.954168 4.599333 2.617433 10.72459 -8.045981 1.085173 21.55945 6.936117 3.286749 -24.36271 9.153463 7.1875 -20.22197 12.26811 84.97333 37.34969 -17.87108 -0 0 16.42864 -9.216297 9.402558 5.33924 5.919888 -20.15472 -1.667893 -92.27306 20.66386 20.74905 0 0 -13.34947 13.68553 15.82345 -2.252443
0.3526748 103.9817 1.74017 0.431738 -0.4158454 -0.3510326 4.053111 -17.98748 9.362224 -0 39.33386 -0 -7.13838 -14.98098 -2.724484 -6.46822 8.974785 -21.91667 -0 5.861774 -0 12.57617 -14.40378 28.0183 -3.471731 -3.905001 4.650389 2.602397 10.61376 -7.945656 1.17649 21.53286 6.876101 3.333405 -24.47487 9.193136 7.00787 -20.15339 12.17748 84.98962 36.92328 -17.81941 -0 0 16.46187 -8.907022 9.01438 5.067288 6.198684 -20.27584 -1.530727 -92.23168 20.30489 20.45607 0 0 -13.34726 14.48454 15.85242 -3.257442
0.6346048 103.2854 5.627308 0.4128852 0.333459 -0.02584791 2.718805 -28.31744 3.073861 -0 20.56908 -0 -5.210499 -4.411412 -3.455965 -6.153848 12.64387 -14.2133 -0 6.364134 -0 4.936811 -20.83168 18.49614 -3.607432 -1.533569 3.714594 3.019679 10.00499 -9.106197 0.6896768 20.34461 7.675032 3.768505 -23.32877 8.255677 5.189943 -17.64323 11.52723 87.71406 33.95276 -21.80864 -0 0 11.59625 -15.06185 12.1311 8.085993 7.63728 -23.00306 -2.70608 -87.26111 20.30087 13.79126 0 0 -22.87369 9.335573 12.72885 2.53346
0.8702525 102.3882 10.08642 0.2750487 0.8925707 0.3916516 2.964232 -30.99244 2.122993 -0 15.20107 -0 -4.790547 -2.074822 -3.523165 -6.048621 14.00021 -12.80447 -0 7.884481 -0 2.819226 -22.19015 16.42606 -3.442505 -1.243032 3.592526 3.123528 9.789324 -9.315383 0.7145865 19.89297 7.770596 3.920861 -23.36988 8.145877 4.87554 -17.00396 11.32047 88.30646 33.37133 -22.947 -0 0 10.60522 -15.7672 12.7291 8.152599 8.1703 -23.63239 -2.645722 -86.47265 20.12861 12.48842 0 0 -24.94177 8.672026 12.18623 3.221205
1.025655 101.4067 15.41824 0.09287092 1.17589 0.9144075 3.297991 -33.0146 1.150482 -0 9.777896 -0 -4.196536 1.045624 -3.851552 -5.792295 15.70547 -10.85129 -0 11.32836 -0 0.02951623 -22.68956 13.73361 -3.0557 -1.005866 3.290763 3.160697 9.727066 -9.586996 0.6919577 19.42029 7.906474 4.050847 -23.07575 7.939069 4.537153 -16.13102 11.14156 89.20188 32.67252 -24.41177 -0 0 9.101223 -17.25682 13.83903 8.550955 8.491426 -24.26958 -2.849247 -85.28316 19.61869 10.79738 0 0 -27.34091 7.642958 11.24844 4.308813
1.131551 100.5362 21.38986 -0.1068553 1.146517 1.464553 3.799421 -33.20094 0.9308612 -0 7.355036 -0 -3.85274 2.87005 -4.143347 -5.495239 16.73709 -9.673484 -0 15.22561 -0 -1.799957 -21.9249 12.12452 -2.577142 -1.028517 3.043514 3.130013 9.808008 -9.731877 0.667531 19.17334 7.967534 4.093127 -22.80051 7.788745 4.359917 -15.56727 11.07056 89.8376 32.19655 -25.3399 -0 0 8.091385 -18.25928 14.61266 8.801335 8.454606 -24.50176 -3.07633 -84.61778 19.13909 9.942951 0 0 -28.47705 7.033195 10.57284 4.952298
1.18659 99.9442 27.94717 -0.3194749 0.6979203 1.952656 4.443173 -31.73812 1.198123 -0 6.686761 -0 -3.467735 3.93714 -4.596482 -5.09907 17.30031 -8.712802 -0 20.62522 -0 -3.315213 -19.87256 11.02668 -1.924248 -1.231511 2.839411 3.03337 10.04745 -9.79966 0.640387 19.09788 7.944024 4.011056 -22.39769 7.629456 4.171936 -15.12466 11.07534 90.45448 31.52044 -26.04263 -0 0 7.194683 -19.19668 15.30204 9.080628 8.1001 -24.47503 -3.410455 -84.1248 18.66057 9.441808 0 0 -29.00099 6.497739 9.879901 5.578763
